# xmcd CD database file
#
# Track frame offsets:
#	150
#	10740
#	22942
#	40277
#	52975
#	62180
#	77842
#	88990
#	100922
#	115125
#	129242
#	148620
#	166175
#	176070
#	194722
#	209832
#	225622
#	237262
#	248165
#	259647
#	274875
#	289080
#	301472
#	319772
#	332635
#
# Disc length: 4601 seconds
#
# Revision: 4
# Processed by: cddbd v1.5.2PL0 Copyright (c) Steve Scherf et al.
# Submitted via: CDex 2.23
#
DISCID=6a11f719
DTITLE=J.J. Cale - Anyway The Wind Blows, The Anthology  CD2
DYEAR=1997
DGENRE=Rock
TTITLE0=Carry On (1980)
TTITLE1=Runaround (1980)
TTITLE2=Mama Don't (1980)
TTITLE3=City Girls (1982)
TTITLE4=Devil In Disguise (1982)
TTITLE5=You Keep Me Hangin' On (1982)
TTITLE6=Downtown L.A. (1982)
TTITLE7=A Thing Going On (1982)
TTITLE8=Don't Wait (1982)
TTITLE9=Wish I Had Me A Dollar (live, 1981)
TTITLE10=Money Talks (1983)
TTITLE11=Hard Times (1983)
TTITLE12=People Lie (1983)
TTITLE13=Unemployment (1983)
TTITLE14=Trouble In The City (1983)
TTITLE15=Santa Cruz (1983)
TTITLE16=Shanghaid (1990)
TTITLE17=Change Your Mind (1990)
TTITLE18=New Orleans (1990)
TTITLE19=Humdinger (1990)
TTITLE20=Lonesome Train (1992)
TTITLE21=Jailer (1992)
TTITLE22=Artificial Paradise (1992)
TTITLE23=Long Way Home (1994)
TTITLE24=Closer To You (1994)
EXTD=Track dates provided. YEAR: 1997
EXTT0=
EXTT1=
EXTT2=
EXTT3=
EXTT4=
EXTT5=
EXTT6=
EXTT7=
EXTT8=
EXTT9=
EXTT10=
EXTT11=
EXTT12=
EXTT13=
EXTT14=
EXTT15=
EXTT16=
EXTT17=
EXTT18=
EXTT19=
EXTT20=
EXTT21=
EXTT22=
EXTT23=
EXTT24=
PLAYORDER=
